<svg height="496pt" viewBox="-77 0 496 496.733" width="496pt" xmlns="http://www.w3.org/2000/svg"><path d="m102.277344 11.628906h-16c-13.230469.011719-23.953125 10.734375-23.964844 23.964844v180.800781h16v-180.800781c.011719-13.230469 10.734375-23.953125 23.964844-23.964844zm0 0" fill="#d4e1f4"/><path d="m28.367188 463.121094v-316.648438c.007812-7.71875 6.261718-13.96875 13.976562-13.980468h-29.976562v344.609374h29.976562c-7.714844-.007812-13.96875-6.261718-13.976562-13.980468zm0 0" fill="#d4e1f4"/><path d="m218.15625 86.941406v-51.210937c.015625-10.222657 6.46875-19.332031 16.109375-22.734375-7.375-2.597656-15.550781-1.453125-21.929687 3.0625-6.382813 4.519531-10.175782 11.855468-10.175782 19.671875v51.210937l48.207032.769532v-.257813zm0 0" fill="#d4e1f4"/><g fill="#0635c9"><path d="m149.214844 261.714844c0-3.316406-2.683594-6-6-6h-39.953125c-3.316407 0-6 2.683594-6 6v39.957031c0 3.3125 2.683593 6 6 6h39.953125c3.316406 0 6-2.6875 6-6zm-12 33.957031h-27.953125v-27.957031h27.953125zm0 0"/><path d="m216.136719 255.714844h-39.957031c-3.3125 0-6 2.683594-6 6v39.957031c0 3.3125 2.6875 6 6 6h39.957031c3.3125 0 6-2.6875 6-6v-39.957031c0-3.316406-2.6875-6-6-6zm-6 39.957031h-27.957031v-27.957031h27.957031zm0 0"/><path d="m82.289062 261.714844c0-3.316406-2.6875-6-6-6h-39.957031c-3.3125 0-6 2.683594-6 6v109.878906c0 3.3125 2.6875 6 6 6h39.957031c3.3125 0 6-2.6875 6-6zm-12 103.878906h-27.957031v-97.878906h27.957031zm0 0"/><path d="m149.214844 331.636719c0-3.3125-2.683594-6-6-6h-39.953125c-3.316407 0-6 2.6875-6 6v39.957031c0 3.3125 2.683593 6 6 6h39.953125c3.316406 0 6-2.6875 6-6zm-12 33.957031h-27.953125v-27.957031h27.953125zm0 0"/><path d="m76.289062 395.5625h-39.957031c-3.3125 0-6 2.6875-6 6v39.957031c0 3.3125 2.6875 6 6 6h39.957031c3.3125 0 6-2.6875 6-6v-39.957031c0-3.3125-2.6875-6-6-6zm-6 39.957031h-27.957031v-27.957031h27.957031zm0 0"/><path d="m143.214844 395.5625h-39.953125c-3.316407 0-6 2.6875-6 6v39.957031c0 3.3125 2.683593 6 6 6h39.953125c3.316406 0 6-2.6875 6-6v-39.957031c0-3.3125-2.683594-6-6-6zm-6 39.957031h-27.953125v-27.957031h27.953125zm0 0"/><path d="m256.265625 100.175781c1.609375.023438 3.160156-.59375 4.308594-1.722656 1.148437-1.128906 1.792969-2.671875 1.792969-4.277344v-58.074219c-.027344-19.929687-16.171876-36.0781245-36.101563-36.101562-.03125 0-.058594 0-.089844 0-.015625 0-.03125 0-.046875 0h-139.851562c-19.851563.0234375-35.941406 16.109375-35.964844 35.964844v84.898437h-33.945312c-8.832032.011719-15.992188 7.167969-16 16v336.605469c.011718 8.832031 7.167968 15.992188 16 16h194.519531c3.316406 0 6-2.683594 6-6 0-3.3125-2.683594-6-6-6h-194.519531c-2.210938 0-4-1.789062-4-4v-336.605469c0-2.207031 1.789062-4 4-4h33.945312v17.964844h-13.980469c-3.3125 0-6 2.6875-6 6v59.9375c0 3.3125 2.6875 6 6 6h179.800781c3.3125 0 6-2.6875 6-6v-59.9375c0-3.3125-2.6875-6-6-6h-13.976562v-17.964844h33.945312c2.210938 0 4 1.792969 4 4v173.871094c0 3.3125 2.6875 6 6 6 3.316407 0 6-2.6875 6-6v-173.871094c-.007812-8.832031-7.167968-15.988281-16-16h-33.945312v-21.550781zm-5.898437-64.074219v51.976563l-48.210938-.769531v-51.207032c0-13.3125 10.792969-24.105468 24.105469-24.105468s24.105469 10.792968 24.105469 24.105468zm-188.054688-.136718c.011719-13.230469 10.734375-23.953125 23.964844-23.96875h113.132812c-5.960937 6.609375-9.257812 15.199218-9.253906 24.101562v174.667969h-127.84375zm-19.980469 126.863281h7.980469v47.9375h-7.980469zm167.800781 0v47.9375h-7.976562v-47.9375zm0 0"/><path d="m159.851562 71.484375h12.441407c3.316406 0 6-2.683594 6-6 0-3.3125-2.683594-6-6-6h-12.441407c-3.3125 0-6 2.6875-6 6 0 3.316406 2.6875 6 6 6zm0 0"/><path d="m78.238281 71.484375h60.121094c3.3125 0 6-2.683594 6-6 0-3.3125-2.6875-6-6-6h-60.121094c-3.3125 0-6 2.6875-6 6 0 3.316406 2.6875 6 6 6zm0 0"/><path d="m149.867188 190.800781h22.429687c3.3125 0 6-2.6875 6-6 0-3.316406-2.6875-6-6-6h-22.429687c-3.3125 0-6 2.683594-6 6 0 3.3125 2.6875 6 6 6zm0 0"/><path d="m133.226562 178.800781h-3.339843c-3.3125 0-6 2.683594-6 6 0 3.3125 2.6875 6 6 6h3.339843c3.3125 0 6-2.6875 6-6 0-3.316406-2.6875-6-6-6zm0 0"/><path d="m159.851562 41.492188h12.441407c3.316406 0 6-2.683594 6-6 0-3.3125-2.683594-6-6-6h-12.441407c-3.3125 0-6 2.6875-6 6 0 3.316406 2.6875 6 6 6zm0 0"/><path d="m78.238281 41.492188h60.121094c3.3125 0 6-2.683594 6-6 0-3.3125-2.6875-6-6-6h-60.121094c-3.3125 0-6 2.6875-6 6 0 3.316406 2.6875 6 6 6zm0 0"/><path d="m159.851562 101.476562h12.441407c3.316406 0 6-2.683593 6-6 0-3.3125-2.683594-6-6-6h-12.441407c-3.3125 0-6 2.6875-6 6 0 3.316407 2.6875 6 6 6zm0 0"/><path d="m78.238281 101.476562h60.121094c3.3125 0 6-2.683593 6-6 0-3.3125-2.6875-6-6-6h-60.121094c-3.3125 0-6 2.6875-6 6 0 3.316407 2.6875 6 6 6zm0 0"/><path d="m159.851562 131.46875h12.441407c3.316406 0 6-2.683594 6-6 0-3.3125-2.683594-6-6-6h-12.441407c-3.3125 0-6 2.6875-6 6 0 3.316406 2.6875 6 6 6zm0 0"/><path d="m78.238281 131.46875h60.121094c3.3125 0 6-2.683594 6-6 0-3.3125-2.6875-6-6-6h-60.121094c-3.3125 0-6 2.6875-6 6 0 3.316406 2.6875 6 6 6zm0 0"/><path d="m159.851562 161.464844h12.441407c3.316406 0 6-2.6875 6-6 0-3.316406-2.683594-6-6-6h-12.441407c-3.3125 0-6 2.683594-6 6 0 3.3125 2.6875 6 6 6zm0 0"/><path d="m78.238281 161.464844h60.121094c3.3125 0 6-2.6875 6-6 0-3.316406-2.6875-6-6-6h-60.121094c-3.3125 0-6 2.683594-6 6 0 3.3125 2.6875 6 6 6zm0 0"/></g><path d="m246.367188 496.734375c53.019531 0 96-42.980469 96-96s-42.980469-96-96-96c-53.019532 0-96 42.980469-96 96 .058593 52.992187 43.003906 95.9375 96 96zm0-180c46.390624 0 84 37.605469 84 84 0 46.390625-37.609376 84-84 84-46.394532 0-84-37.609375-84-84 .050781-46.371094 37.628906-83.949219 84-84zm0 0" fill="#1ae5be"/><path d="m231.710938 400.820312-19.28125-.207031h-.0625c-2.445313 0-4.648438 1.488281-5.5625 3.753907-.917969 2.269531-.363282 4.867187 1.394531 6.566406l47.699219 46.054687c2.386718 2.300781 6.183593 2.234375 8.484374-.148437 2.300782-2.386719 2.234376-6.183594-.148437-8.484375l-36.847656-35.578125 4.195312.042968c16.964844.183594 31.605469-11.855468 34.699219-28.539062l13.710938.148438h.066406c3.3125.015624 6.015625-2.65625 6.03125-5.96875.015625-3.316407-2.65625-6.015626-5.96875-6.03125l-13.714844-.148438c-1.027344-6.28125-3.757812-12.164062-7.894531-17l21.792969.234375h.0625c3.3125.015625 6.011718-2.65625 6.03125-5.96875.015624-3.3125-2.65625-6.015625-5.96875-6.03125l-48.101563-.515625-19.277344-.207031h-.066406c-3.316406-.015625-6.015625 2.65625-6.03125 5.96875-.019531 3.3125 2.652344 6.015625 5.96875 6.03125l19.277344.207031c10.339843.125 19.316406 7.144531 21.925781 17.148438l-41.386719-.445313c-3.3125-.035156-6.027343 2.621094-6.0625 5.933594-.035156 3.316406 2.621094 6.03125 5.933594 6.066406l41.378906.445313c-2.804687 9.953124-11.9375 16.789062-22.277343 16.671874zm0 0" fill="#1ae5be"/></svg>